<mxfile host="Electron" agent="Mozilla/5.0 (X11; Linux x86_64) AppleWebKit/537.36 (KHTML, like Gecko) draw.io/27.0.5 Chrome/134.0.6998.205 Electron/35.3.0 Safari/537.36" version="27.0.5">
  <diagram name="Page-1" id="VmxxJrtDYQoaDsM94NEV">
    <mxGraphModel dx="3625" dy="2560" grid="1" gridSize="10" guides="1" tooltips="1" connect="1" arrows="1" fold="1" page="1" pageScale="1" pageWidth="850" pageHeight="1100" math="0" shadow="0">
      <root>
        <mxCell id="0" />
        <mxCell id="1" parent="0" />
        <mxCell id="nd5Npg8IJwhZFM3NRIcZ-1" value="User" style="shape=umlActor;verticalLabelPosition=bottom;verticalAlign=top;html=1;" parent="1" vertex="1">
          <mxGeometry x="40" y="40" width="30" height="60" as="geometry" />
        </mxCell>
        <mxCell id="nd5Npg8IJwhZFM3NRIcZ-13" value="Sign Up" style="ellipse;whiteSpace=wrap;html=1;" parent="1" vertex="1">
          <mxGeometry x="425" y="30" width="90" height="60" as="geometry" />
        </mxCell>
        <mxCell id="nd5Npg8IJwhZFM3NRIcZ-15" value="Confrim Email" style="ellipse;whiteSpace=wrap;html=1;" parent="1" vertex="1">
          <mxGeometry x="410" y="150" width="90" height="60" as="geometry" />
        </mxCell>
        <mxCell id="nd5Npg8IJwhZFM3NRIcZ-16" value="Sign In&lt;span style=&quot;color: rgba(0, 0, 0, 0); font-family: monospace; font-size: 0px; text-align: start; text-wrap-mode: nowrap;&quot;&gt;%3CmxGraphModel%3E%3Croot%3E%3CmxCell%20id%3D%220%22%2F%3E%3CmxCell%20id%3D%221%22%20parent%3D%220%22%2F%3E%3CmxCell%20id%3D%222%22%20value%3D%22Confrim%20Email%22%20style%3D%22ellipse%3BwhiteSpace%3Dwrap%3Bhtml%3D1%3B%22%20vertex%3D%221%22%20parent%3D%221%22%3E%3CmxGeometry%20x%3D%22160%22%20y%3D%22130%22%20width%3D%2290%22%20height%3D%2260%22%20as%3D%22geometry%22%2F%3E%3C%2FmxCell%3E%3C%2Froot%3E%3C%2FmxGraphModel%3E&lt;/span&gt;" style="ellipse;whiteSpace=wrap;html=1;" parent="1" vertex="1">
          <mxGeometry x="370" y="240" width="90" height="60" as="geometry" />
        </mxCell>
        <mxCell id="nd5Npg8IJwhZFM3NRIcZ-17" value="Forgot Password" style="ellipse;whiteSpace=wrap;html=1;" parent="1" vertex="1">
          <mxGeometry x="310" y="310" width="90" height="60" as="geometry" />
        </mxCell>
        <mxCell id="nd5Npg8IJwhZFM3NRIcZ-18" value="Reset Password" style="ellipse;whiteSpace=wrap;html=1;" parent="1" vertex="1">
          <mxGeometry x="280" y="460" width="90" height="60" as="geometry" />
        </mxCell>
        <mxCell id="nd5Npg8IJwhZFM3NRIcZ-19" value="Change Password" style="ellipse;whiteSpace=wrap;html=1;" parent="1" vertex="1">
          <mxGeometry x="240" y="590" width="90" height="60" as="geometry" />
        </mxCell>
        <mxCell id="nd5Npg8IJwhZFM3NRIcZ-20" value="Delete Account" style="ellipse;whiteSpace=wrap;html=1;" parent="1" vertex="1">
          <mxGeometry x="-690" y="170" width="90" height="60" as="geometry" />
        </mxCell>
        <mxCell id="nd5Npg8IJwhZFM3NRIcZ-21" value="Create Task" style="ellipse;whiteSpace=wrap;html=1;" parent="1" vertex="1">
          <mxGeometry x="10" y="620" width="90" height="60" as="geometry" />
        </mxCell>
        <mxCell id="nd5Npg8IJwhZFM3NRIcZ-22" value="View Task" style="ellipse;whiteSpace=wrap;html=1;" parent="1" vertex="1">
          <mxGeometry x="130" y="590" width="90" height="60" as="geometry" />
        </mxCell>
        <mxCell id="nd5Npg8IJwhZFM3NRIcZ-23" value="Edit Task" style="ellipse;whiteSpace=wrap;html=1;" parent="1" vertex="1">
          <mxGeometry x="-280" y="560" width="90" height="60" as="geometry" />
        </mxCell>
        <mxCell id="nd5Npg8IJwhZFM3NRIcZ-24" value="Delete Task" style="ellipse;whiteSpace=wrap;html=1;" parent="1" vertex="1">
          <mxGeometry x="-540" y="580" width="90" height="60" as="geometry" />
        </mxCell>
        <mxCell id="nd5Npg8IJwhZFM3NRIcZ-25" value="Filter / Sort Tasks" style="ellipse;whiteSpace=wrap;html=1;" parent="1" vertex="1">
          <mxGeometry x="-470" y="70" width="90" height="60" as="geometry" />
        </mxCell>
        <mxCell id="nd5Npg8IJwhZFM3NRIcZ-26" value="Add SubTask" style="ellipse;whiteSpace=wrap;html=1;" parent="1" vertex="1">
          <mxGeometry x="-190" y="710" width="90" height="60" as="geometry" />
        </mxCell>
        <mxCell id="nd5Npg8IJwhZFM3NRIcZ-27" value="Edit&amp;nbsp; SubTask" style="ellipse;whiteSpace=wrap;html=1;" parent="1" vertex="1">
          <mxGeometry x="-380" width="90" height="60" as="geometry" />
        </mxCell>
        <mxCell id="nd5Npg8IJwhZFM3NRIcZ-28" value="Delete SubTask" style="ellipse;whiteSpace=wrap;html=1;" parent="1" vertex="1">
          <mxGeometry x="-330" y="470" width="90" height="60" as="geometry" />
        </mxCell>
        <mxCell id="nd5Npg8IJwhZFM3NRIcZ-29" value="Create Habit" style="ellipse;whiteSpace=wrap;html=1;" parent="1" vertex="1">
          <mxGeometry x="310" y="-100" width="90" height="60" as="geometry" />
        </mxCell>
        <mxCell id="nd5Npg8IJwhZFM3NRIcZ-30" value="View Habit" style="ellipse;whiteSpace=wrap;html=1;" parent="1" vertex="1">
          <mxGeometry x="-370" y="-90" width="90" height="60" as="geometry" />
        </mxCell>
        <mxCell id="nd5Npg8IJwhZFM3NRIcZ-31" value="Edit Habit" style="ellipse;whiteSpace=wrap;html=1;" parent="1" vertex="1">
          <mxGeometry x="440" y="-60" width="90" height="60" as="geometry" />
        </mxCell>
        <mxCell id="nd5Npg8IJwhZFM3NRIcZ-32" value="Delete Habit" style="ellipse;whiteSpace=wrap;html=1;" parent="1" vertex="1">
          <mxGeometry x="-460" y="210" width="90" height="60" as="geometry" />
        </mxCell>
        <mxCell id="nd5Npg8IJwhZFM3NRIcZ-33" value="Change Habit Status (Past Date)" style="ellipse;whiteSpace=wrap;html=1;" parent="1" vertex="1">
          <mxGeometry x="170" y="-230" width="90" height="60" as="geometry" />
        </mxCell>
        <mxCell id="nd5Npg8IJwhZFM3NRIcZ-34" value="Configure Pattern" style="ellipse;whiteSpace=wrap;html=1;" parent="1" vertex="1">
          <mxGeometry x="440" y="-320" width="90" height="60" as="geometry" />
        </mxCell>
        <mxCell id="nd5Npg8IJwhZFM3NRIcZ-35" value="Add Reminder" style="ellipse;whiteSpace=wrap;html=1;" parent="1" vertex="1">
          <mxGeometry x="-330" y="-180" width="90" height="60" as="geometry" />
        </mxCell>
        <mxCell id="nd5Npg8IJwhZFM3NRIcZ-36" value="Edit Reminder" style="ellipse;whiteSpace=wrap;html=1;" parent="1" vertex="1">
          <mxGeometry x="-260" y="-270" width="90" height="60" as="geometry" />
        </mxCell>
        <mxCell id="nd5Npg8IJwhZFM3NRIcZ-37" value="Delete Reminder" style="ellipse;whiteSpace=wrap;html=1;" parent="1" vertex="1">
          <mxGeometry x="-440" y="370" width="90" height="60" as="geometry" />
        </mxCell>
        <mxCell id="nd5Npg8IJwhZFM3NRIcZ-38" value="Toggle Reminder" style="ellipse;whiteSpace=wrap;html=1;" parent="1" vertex="1">
          <mxGeometry x="-110" y="-390" width="90" height="60" as="geometry" />
        </mxCell>
        <mxCell id="nd5Npg8IJwhZFM3NRIcZ-39" value="View Daily Status" style="ellipse;whiteSpace=wrap;html=1;" parent="1" vertex="1">
          <mxGeometry x="-80" y="-600" width="90" height="60" as="geometry" />
        </mxCell>
        <mxCell id="nd5Npg8IJwhZFM3NRIcZ-40" value="View Completion" style="ellipse;whiteSpace=wrap;html=1;" parent="1" vertex="1">
          <mxGeometry x="60" y="-400" width="90" height="60" as="geometry" />
        </mxCell>
        <mxCell id="nd5Npg8IJwhZFM3NRIcZ-41" value="View Habit Charts" style="ellipse;whiteSpace=wrap;html=1;" parent="1" vertex="1">
          <mxGeometry x="-10" y="-500" width="90" height="60" as="geometry" />
        </mxCell>
        <mxCell id="nd5Npg8IJwhZFM3NRIcZ-42" value="View Task Status" style="ellipse;whiteSpace=wrap;html=1;" parent="1" vertex="1">
          <mxGeometry x="110" y="-310" width="90" height="60" as="geometry" />
        </mxCell>
        <mxCell id="nd5Npg8IJwhZFM3NRIcZ-43" value="Set Stats Range" style="ellipse;whiteSpace=wrap;html=1;" parent="1" vertex="1">
          <mxGeometry x="370" y="-380" width="90" height="60" as="geometry" />
        </mxCell>
        <mxCell id="nd5Npg8IJwhZFM3NRIcZ-46" value="" style="endArrow=open;startArrow=none;endFill=0;startFill=0;endSize=8;html=1;verticalAlign=bottom;labelBackgroundColor=none;strokeWidth=1;rounded=0;" parent="1" source="nd5Npg8IJwhZFM3NRIcZ-1" target="nd5Npg8IJwhZFM3NRIcZ-13" edge="1">
          <mxGeometry width="160" relative="1" as="geometry">
            <mxPoint x="-50" y="200" as="sourcePoint" />
            <mxPoint x="110" y="200" as="targetPoint" />
          </mxGeometry>
        </mxCell>
        <mxCell id="nd5Npg8IJwhZFM3NRIcZ-47" value="" style="endArrow=open;startArrow=none;endFill=0;startFill=0;endSize=8;html=1;verticalAlign=bottom;labelBackgroundColor=none;strokeWidth=1;rounded=0;" parent="1" source="nd5Npg8IJwhZFM3NRIcZ-1" target="nd5Npg8IJwhZFM3NRIcZ-15" edge="1">
          <mxGeometry width="160" relative="1" as="geometry">
            <mxPoint x="80" y="79" as="sourcePoint" />
            <mxPoint x="340" y="54" as="targetPoint" />
          </mxGeometry>
        </mxCell>
        <mxCell id="nd5Npg8IJwhZFM3NRIcZ-49" value="&amp;lt;&amp;lt;include&amp;gt;&amp;gt;" style="html=1;verticalAlign=bottom;labelBackgroundColor=none;endArrow=open;endFill=0;dashed=1;rounded=0;" parent="1" source="nd5Npg8IJwhZFM3NRIcZ-15" target="nd5Npg8IJwhZFM3NRIcZ-13" edge="1">
          <mxGeometry width="160" relative="1" as="geometry">
            <mxPoint x="180" y="180" as="sourcePoint" />
            <mxPoint x="340" y="180" as="targetPoint" />
          </mxGeometry>
        </mxCell>
        <mxCell id="nd5Npg8IJwhZFM3NRIcZ-50" value="" style="endArrow=open;startArrow=none;endFill=0;startFill=0;endSize=8;html=1;verticalAlign=bottom;labelBackgroundColor=none;strokeWidth=1;rounded=0;" parent="1" source="nd5Npg8IJwhZFM3NRIcZ-1" target="nd5Npg8IJwhZFM3NRIcZ-16" edge="1">
          <mxGeometry width="160" relative="1" as="geometry">
            <mxPoint x="80" y="86" as="sourcePoint" />
            <mxPoint x="346" y="185" as="targetPoint" />
          </mxGeometry>
        </mxCell>
        <mxCell id="nd5Npg8IJwhZFM3NRIcZ-51" value="" style="endArrow=open;startArrow=none;endFill=0;startFill=0;endSize=8;html=1;verticalAlign=bottom;labelBackgroundColor=none;strokeWidth=1;rounded=0;" parent="1" source="nd5Npg8IJwhZFM3NRIcZ-1" target="nd5Npg8IJwhZFM3NRIcZ-17" edge="1">
          <mxGeometry width="160" relative="1" as="geometry">
            <mxPoint x="80" y="90" as="sourcePoint" />
            <mxPoint x="324" y="258" as="targetPoint" />
          </mxGeometry>
        </mxCell>
        <mxCell id="nd5Npg8IJwhZFM3NRIcZ-52" value="" style="endArrow=open;startArrow=none;endFill=0;startFill=0;endSize=8;html=1;verticalAlign=bottom;labelBackgroundColor=none;strokeWidth=1;rounded=0;" parent="1" source="nd5Npg8IJwhZFM3NRIcZ-1" target="nd5Npg8IJwhZFM3NRIcZ-18" edge="1">
          <mxGeometry width="160" relative="1" as="geometry">
            <mxPoint x="80" y="97" as="sourcePoint" />
            <mxPoint x="272" y="314" as="targetPoint" />
          </mxGeometry>
        </mxCell>
        <mxCell id="nd5Npg8IJwhZFM3NRIcZ-53" value="&amp;lt;&amp;lt;include&amp;gt;&amp;gt;" style="html=1;verticalAlign=bottom;labelBackgroundColor=none;endArrow=open;endFill=0;dashed=1;rounded=0;" parent="1" source="nd5Npg8IJwhZFM3NRIcZ-17" target="nd5Npg8IJwhZFM3NRIcZ-18" edge="1">
          <mxGeometry width="160" relative="1" as="geometry">
            <mxPoint x="385" y="170" as="sourcePoint" />
            <mxPoint x="380" y="410" as="targetPoint" />
          </mxGeometry>
        </mxCell>
        <mxCell id="nd5Npg8IJwhZFM3NRIcZ-54" value="" style="endArrow=open;startArrow=none;endFill=0;startFill=0;endSize=8;html=1;verticalAlign=bottom;labelBackgroundColor=none;strokeWidth=1;rounded=0;" parent="1" source="nd5Npg8IJwhZFM3NRIcZ-1" target="nd5Npg8IJwhZFM3NRIcZ-19" edge="1">
          <mxGeometry width="160" relative="1" as="geometry">
            <mxPoint x="80" y="103" as="sourcePoint" />
            <mxPoint x="327" y="482" as="targetPoint" />
          </mxGeometry>
        </mxCell>
        <mxCell id="nd5Npg8IJwhZFM3NRIcZ-55" value="" style="endArrow=open;startArrow=none;endFill=0;startFill=0;endSize=8;html=1;verticalAlign=bottom;labelBackgroundColor=none;strokeWidth=1;rounded=0;" parent="1" source="nd5Npg8IJwhZFM3NRIcZ-1" target="nd5Npg8IJwhZFM3NRIcZ-20" edge="1">
          <mxGeometry width="160" relative="1" as="geometry">
            <mxPoint x="77" y="110" as="sourcePoint" />
            <mxPoint x="233" y="491" as="targetPoint" />
          </mxGeometry>
        </mxCell>
        <mxCell id="nd5Npg8IJwhZFM3NRIcZ-56" value="" style="endArrow=open;startArrow=none;endFill=0;startFill=0;endSize=8;html=1;verticalAlign=bottom;labelBackgroundColor=none;strokeWidth=1;rounded=0;" parent="1" source="nd5Npg8IJwhZFM3NRIcZ-1" target="nd5Npg8IJwhZFM3NRIcZ-21" edge="1">
          <mxGeometry width="160" relative="1" as="geometry">
            <mxPoint x="87" y="120" as="sourcePoint" />
            <mxPoint x="243" y="501" as="targetPoint" />
          </mxGeometry>
        </mxCell>
        <mxCell id="nd5Npg8IJwhZFM3NRIcZ-57" value="" style="endArrow=open;startArrow=none;endFill=0;startFill=0;endSize=8;html=1;verticalAlign=bottom;labelBackgroundColor=none;strokeWidth=1;rounded=0;" parent="1" source="nd5Npg8IJwhZFM3NRIcZ-1" target="nd5Npg8IJwhZFM3NRIcZ-22" edge="1">
          <mxGeometry width="160" relative="1" as="geometry">
            <mxPoint x="55" y="100" as="sourcePoint" />
            <mxPoint x="37" y="500" as="targetPoint" />
          </mxGeometry>
        </mxCell>
        <mxCell id="nd5Npg8IJwhZFM3NRIcZ-58" value="" style="endArrow=open;startArrow=none;endFill=0;startFill=0;endSize=8;html=1;verticalAlign=bottom;labelBackgroundColor=none;strokeWidth=1;rounded=0;" parent="1" source="nd5Npg8IJwhZFM3NRIcZ-1" target="nd5Npg8IJwhZFM3NRIcZ-23" edge="1">
          <mxGeometry width="160" relative="1" as="geometry">
            <mxPoint x="59" y="110" as="sourcePoint" />
            <mxPoint x="-80" y="430" as="targetPoint" />
          </mxGeometry>
        </mxCell>
        <mxCell id="nd5Npg8IJwhZFM3NRIcZ-59" value="" style="endArrow=open;startArrow=none;endFill=0;startFill=0;endSize=8;html=1;verticalAlign=bottom;labelBackgroundColor=none;strokeWidth=1;rounded=0;" parent="1" source="nd5Npg8IJwhZFM3NRIcZ-1" target="nd5Npg8IJwhZFM3NRIcZ-24" edge="1">
          <mxGeometry width="160" relative="1" as="geometry">
            <mxPoint x="55" y="110" as="sourcePoint" />
            <mxPoint x="-75" y="501" as="targetPoint" />
          </mxGeometry>
        </mxCell>
        <mxCell id="nd5Npg8IJwhZFM3NRIcZ-60" value="&amp;lt;&amp;lt;include&amp;gt;&amp;gt;" style="html=1;verticalAlign=bottom;labelBackgroundColor=none;endArrow=open;endFill=0;dashed=1;rounded=0;" parent="1" source="nd5Npg8IJwhZFM3NRIcZ-24" target="nd5Npg8IJwhZFM3NRIcZ-28" edge="1">
          <mxGeometry width="160" relative="1" as="geometry">
            <mxPoint x="-130" y="530" as="sourcePoint" />
            <mxPoint x="-130" y="430" as="targetPoint" />
          </mxGeometry>
        </mxCell>
        <mxCell id="nd5Npg8IJwhZFM3NRIcZ-62" value="&amp;lt;&amp;lt;include&amp;gt;&amp;gt;" style="html=1;verticalAlign=bottom;labelBackgroundColor=none;endArrow=open;endFill=0;dashed=1;rounded=0;" parent="1" source="nd5Npg8IJwhZFM3NRIcZ-24" target="nd5Npg8IJwhZFM3NRIcZ-37" edge="1">
          <mxGeometry width="160" relative="1" as="geometry">
            <mxPoint y="440" as="sourcePoint" />
            <mxPoint y="340" as="targetPoint" />
          </mxGeometry>
        </mxCell>
        <mxCell id="nd5Npg8IJwhZFM3NRIcZ-63" value="" style="endArrow=open;startArrow=none;endFill=0;startFill=0;endSize=8;html=1;verticalAlign=bottom;labelBackgroundColor=none;strokeWidth=1;rounded=0;" parent="1" source="nd5Npg8IJwhZFM3NRIcZ-1" target="nd5Npg8IJwhZFM3NRIcZ-25" edge="1">
          <mxGeometry width="160" relative="1" as="geometry">
            <mxPoint x="50" y="109" as="sourcePoint" />
            <mxPoint x="-120" y="432" as="targetPoint" />
          </mxGeometry>
        </mxCell>
        <mxCell id="nd5Npg8IJwhZFM3NRIcZ-64" value="" style="endArrow=open;startArrow=none;endFill=0;startFill=0;endSize=8;html=1;verticalAlign=bottom;labelBackgroundColor=none;strokeWidth=1;rounded=0;" parent="1" source="nd5Npg8IJwhZFM3NRIcZ-1" target="nd5Npg8IJwhZFM3NRIcZ-26" edge="1">
          <mxGeometry width="160" relative="1" as="geometry">
            <mxPoint x="50" y="99" as="sourcePoint" />
            <mxPoint x="-164" y="364" as="targetPoint" />
          </mxGeometry>
        </mxCell>
        <mxCell id="nd5Npg8IJwhZFM3NRIcZ-65" value="&amp;lt;&amp;lt;include&amp;gt;&amp;gt;" style="html=1;verticalAlign=bottom;labelBackgroundColor=none;endArrow=open;endFill=0;dashed=1;rounded=0;" parent="1" source="nd5Npg8IJwhZFM3NRIcZ-23" target="nd5Npg8IJwhZFM3NRIcZ-26" edge="1">
          <mxGeometry width="160" relative="1" as="geometry">
            <mxPoint x="-280" y="660" as="sourcePoint" />
            <mxPoint x="-376" y="706" as="targetPoint" />
          </mxGeometry>
        </mxCell>
        <mxCell id="nd5Npg8IJwhZFM3NRIcZ-66" value="&amp;lt;&amp;lt;include&amp;gt;&amp;gt;" style="html=1;verticalAlign=bottom;labelBackgroundColor=none;endArrow=open;endFill=0;dashed=1;rounded=0;" parent="1" source="nd5Npg8IJwhZFM3NRIcZ-21" target="nd5Npg8IJwhZFM3NRIcZ-26" edge="1">
          <mxGeometry width="160" relative="1" as="geometry">
            <mxPoint x="-270" y="690" as="sourcePoint" />
            <mxPoint x="-366" y="736" as="targetPoint" />
          </mxGeometry>
        </mxCell>
        <mxCell id="nd5Npg8IJwhZFM3NRIcZ-67" value="" style="endArrow=open;startArrow=none;endFill=0;startFill=0;endSize=8;html=1;verticalAlign=bottom;labelBackgroundColor=none;strokeWidth=1;rounded=0;" parent="1" source="nd5Npg8IJwhZFM3NRIcZ-1" target="nd5Npg8IJwhZFM3NRIcZ-27" edge="1">
          <mxGeometry width="160" relative="1" as="geometry">
            <mxPoint x="50" y="99" as="sourcePoint" />
            <mxPoint x="-164" y="364" as="targetPoint" />
          </mxGeometry>
        </mxCell>
        <mxCell id="nd5Npg8IJwhZFM3NRIcZ-68" value="" style="endArrow=open;startArrow=none;endFill=0;startFill=0;endSize=8;html=1;verticalAlign=bottom;labelBackgroundColor=none;strokeWidth=1;rounded=0;" parent="1" source="nd5Npg8IJwhZFM3NRIcZ-1" target="nd5Npg8IJwhZFM3NRIcZ-29" edge="1">
          <mxGeometry width="160" relative="1" as="geometry">
            <mxPoint x="50" y="89" as="sourcePoint" />
            <mxPoint x="-321" y="300" as="targetPoint" />
          </mxGeometry>
        </mxCell>
        <mxCell id="nd5Npg8IJwhZFM3NRIcZ-69" value="" style="endArrow=open;startArrow=none;endFill=0;startFill=0;endSize=8;html=1;verticalAlign=bottom;labelBackgroundColor=none;strokeWidth=1;rounded=0;" parent="1" source="nd5Npg8IJwhZFM3NRIcZ-1" target="nd5Npg8IJwhZFM3NRIcZ-30" edge="1">
          <mxGeometry width="160" relative="1" as="geometry">
            <mxPoint x="50" y="86" as="sourcePoint" />
            <mxPoint x="-346" y="235" as="targetPoint" />
          </mxGeometry>
        </mxCell>
        <mxCell id="9AlRuPnBARWyoGBG4XdZ-1" value="" style="endArrow=open;startArrow=none;endFill=0;startFill=0;endSize=8;html=1;verticalAlign=bottom;labelBackgroundColor=none;strokeWidth=1;rounded=0;" edge="1" parent="1" source="nd5Npg8IJwhZFM3NRIcZ-1" target="nd5Npg8IJwhZFM3NRIcZ-35">
          <mxGeometry width="160" relative="1" as="geometry">
            <mxPoint x="50" y="83" as="sourcePoint" />
            <mxPoint x="-352" y="171" as="targetPoint" />
          </mxGeometry>
        </mxCell>
        <mxCell id="9AlRuPnBARWyoGBG4XdZ-2" value="" style="endArrow=open;startArrow=none;endFill=0;startFill=0;endSize=8;html=1;verticalAlign=bottom;labelBackgroundColor=none;strokeWidth=1;rounded=0;" edge="1" parent="1" source="nd5Npg8IJwhZFM3NRIcZ-1" target="nd5Npg8IJwhZFM3NRIcZ-31">
          <mxGeometry width="160" relative="1" as="geometry">
            <mxPoint x="50" y="80" as="sourcePoint" />
            <mxPoint x="-360" y="80" as="targetPoint" />
          </mxGeometry>
        </mxCell>
        <mxCell id="9AlRuPnBARWyoGBG4XdZ-3" value="" style="endArrow=open;startArrow=none;endFill=0;startFill=0;endSize=8;html=1;verticalAlign=bottom;labelBackgroundColor=none;strokeWidth=1;rounded=0;" edge="1" parent="1" source="nd5Npg8IJwhZFM3NRIcZ-1" target="nd5Npg8IJwhZFM3NRIcZ-32">
          <mxGeometry width="160" relative="1" as="geometry">
            <mxPoint x="50" y="77" as="sourcePoint" />
            <mxPoint x="-351" y="8" as="targetPoint" />
          </mxGeometry>
        </mxCell>
        <mxCell id="9AlRuPnBARWyoGBG4XdZ-4" value="" style="endArrow=open;startArrow=none;endFill=0;startFill=0;endSize=8;html=1;verticalAlign=bottom;labelBackgroundColor=none;strokeWidth=1;rounded=0;" edge="1" parent="1" source="nd5Npg8IJwhZFM3NRIcZ-1" target="nd5Npg8IJwhZFM3NRIcZ-36">
          <mxGeometry width="160" relative="1" as="geometry">
            <mxPoint x="50" y="75" as="sourcePoint" />
            <mxPoint x="-345" y="-66" as="targetPoint" />
          </mxGeometry>
        </mxCell>
        <mxCell id="9AlRuPnBARWyoGBG4XdZ-5" value="" style="endArrow=open;startArrow=none;endFill=0;startFill=0;endSize=8;html=1;verticalAlign=bottom;labelBackgroundColor=none;strokeWidth=1;rounded=0;" edge="1" parent="1" source="nd5Npg8IJwhZFM3NRIcZ-1" target="nd5Npg8IJwhZFM3NRIcZ-38">
          <mxGeometry width="160" relative="1" as="geometry">
            <mxPoint x="50" y="71" as="sourcePoint" />
            <mxPoint x="-332" y="-169" as="targetPoint" />
          </mxGeometry>
        </mxCell>
        <mxCell id="9AlRuPnBARWyoGBG4XdZ-6" value="" style="endArrow=open;startArrow=none;endFill=0;startFill=0;endSize=8;html=1;verticalAlign=bottom;labelBackgroundColor=none;strokeWidth=1;rounded=0;" edge="1" parent="1" source="nd5Npg8IJwhZFM3NRIcZ-1" target="nd5Npg8IJwhZFM3NRIcZ-39">
          <mxGeometry width="160" relative="1" as="geometry">
            <mxPoint x="50" y="67" as="sourcePoint" />
            <mxPoint x="-327" y="-256" as="targetPoint" />
          </mxGeometry>
        </mxCell>
        <mxCell id="9AlRuPnBARWyoGBG4XdZ-7" value="" style="endArrow=open;startArrow=none;endFill=0;startFill=0;endSize=8;html=1;verticalAlign=bottom;labelBackgroundColor=none;strokeWidth=1;rounded=0;" edge="1" parent="1" source="nd5Npg8IJwhZFM3NRIcZ-1" target="nd5Npg8IJwhZFM3NRIcZ-41">
          <mxGeometry width="160" relative="1" as="geometry">
            <mxPoint x="50" y="60" as="sourcePoint" />
            <mxPoint x="-245" y="-323" as="targetPoint" />
          </mxGeometry>
        </mxCell>
        <mxCell id="9AlRuPnBARWyoGBG4XdZ-8" value="" style="endArrow=open;startArrow=none;endFill=0;startFill=0;endSize=8;html=1;verticalAlign=bottom;labelBackgroundColor=none;strokeWidth=1;rounded=0;" edge="1" parent="1" source="nd5Npg8IJwhZFM3NRIcZ-1" target="nd5Npg8IJwhZFM3NRIcZ-40">
          <mxGeometry width="160" relative="1" as="geometry">
            <mxPoint x="51" y="50" as="sourcePoint" />
            <mxPoint x="-131" y="-331" as="targetPoint" />
          </mxGeometry>
        </mxCell>
        <mxCell id="9AlRuPnBARWyoGBG4XdZ-9" value="" style="endArrow=open;startArrow=none;endFill=0;startFill=0;endSize=8;html=1;verticalAlign=bottom;labelBackgroundColor=none;strokeWidth=1;rounded=0;" edge="1" parent="1" source="nd5Npg8IJwhZFM3NRIcZ-1" target="nd5Npg8IJwhZFM3NRIcZ-42">
          <mxGeometry width="160" relative="1" as="geometry">
            <mxPoint x="58" y="50" as="sourcePoint" />
            <mxPoint x="-28" y="-330" as="targetPoint" />
          </mxGeometry>
        </mxCell>
        <mxCell id="9AlRuPnBARWyoGBG4XdZ-10" value="" style="endArrow=open;startArrow=none;endFill=0;startFill=0;endSize=8;html=1;verticalAlign=bottom;labelBackgroundColor=none;strokeWidth=1;rounded=0;" edge="1" parent="1" source="nd5Npg8IJwhZFM3NRIcZ-1" target="nd5Npg8IJwhZFM3NRIcZ-33">
          <mxGeometry width="160" relative="1" as="geometry">
            <mxPoint x="66" y="50" as="sourcePoint" />
            <mxPoint x="74" y="-330" as="targetPoint" />
          </mxGeometry>
        </mxCell>
        <mxCell id="9AlRuPnBARWyoGBG4XdZ-11" value="" style="endArrow=open;startArrow=none;endFill=0;startFill=0;endSize=8;html=1;verticalAlign=bottom;labelBackgroundColor=none;strokeWidth=1;rounded=0;" edge="1" parent="1" source="nd5Npg8IJwhZFM3NRIcZ-1" target="nd5Npg8IJwhZFM3NRIcZ-34">
          <mxGeometry width="160" relative="1" as="geometry">
            <mxPoint x="74" y="50" as="sourcePoint" />
            <mxPoint x="186" y="-321" as="targetPoint" />
          </mxGeometry>
        </mxCell>
        <mxCell id="9AlRuPnBARWyoGBG4XdZ-12" value="" style="endArrow=open;startArrow=none;endFill=0;startFill=0;endSize=8;html=1;verticalAlign=bottom;labelBackgroundColor=none;strokeWidth=1;rounded=0;" edge="1" parent="1" source="nd5Npg8IJwhZFM3NRIcZ-1" target="nd5Npg8IJwhZFM3NRIcZ-43">
          <mxGeometry width="160" relative="1" as="geometry">
            <mxPoint x="80" y="55" as="sourcePoint" />
            <mxPoint x="288" y="-292" as="targetPoint" />
          </mxGeometry>
        </mxCell>
        <mxCell id="9AlRuPnBARWyoGBG4XdZ-14" value="&amp;lt;&amp;lt;include&amp;gt;&amp;gt;" style="html=1;verticalAlign=bottom;labelBackgroundColor=none;endArrow=open;endFill=0;dashed=1;rounded=0;" edge="1" parent="1" source="nd5Npg8IJwhZFM3NRIcZ-32" target="nd5Npg8IJwhZFM3NRIcZ-37">
          <mxGeometry width="160" relative="1" as="geometry">
            <mxPoint x="39" y="418" as="sourcePoint" />
            <mxPoint x="-49" y="462" as="targetPoint" />
          </mxGeometry>
        </mxCell>
        <mxCell id="9AlRuPnBARWyoGBG4XdZ-16" value="" style="endArrow=open;startArrow=none;endFill=0;startFill=0;endSize=8;html=1;verticalAlign=bottom;labelBackgroundColor=none;strokeWidth=1;rounded=0;" edge="1" parent="1" source="nd5Npg8IJwhZFM3NRIcZ-1" target="nd5Npg8IJwhZFM3NRIcZ-37">
          <mxGeometry width="160" relative="1" as="geometry">
            <mxPoint x="50" y="106" as="sourcePoint" />
            <mxPoint x="-129" y="412" as="targetPoint" />
          </mxGeometry>
        </mxCell>
        <mxCell id="9AlRuPnBARWyoGBG4XdZ-18" value="&amp;lt;&amp;lt;include&amp;gt;&amp;gt;" style="html=1;verticalAlign=bottom;labelBackgroundColor=none;endArrow=open;endFill=0;dashed=1;rounded=0;" edge="1" parent="1" source="nd5Npg8IJwhZFM3NRIcZ-31" target="nd5Npg8IJwhZFM3NRIcZ-34">
          <mxGeometry width="160" relative="1" as="geometry">
            <mxPoint x="-260" y="-50" as="sourcePoint" />
            <mxPoint x="-343" as="targetPoint" />
          </mxGeometry>
        </mxCell>
        <mxCell id="9AlRuPnBARWyoGBG4XdZ-19" value="&amp;lt;&amp;lt;include&amp;gt;&amp;gt;" style="html=1;verticalAlign=bottom;labelBackgroundColor=none;endArrow=open;endFill=0;dashed=1;rounded=0;" edge="1" parent="1" source="nd5Npg8IJwhZFM3NRIcZ-29" target="nd5Npg8IJwhZFM3NRIcZ-34">
          <mxGeometry width="160" relative="1" as="geometry">
            <mxPoint x="-358" y="-17" as="sourcePoint" />
            <mxPoint x="268" y="-303" as="targetPoint" />
          </mxGeometry>
        </mxCell>
        <mxCell id="9AlRuPnBARWyoGBG4XdZ-20" value="&amp;lt;&amp;lt;include&amp;gt;&amp;gt;" style="html=1;verticalAlign=bottom;labelBackgroundColor=none;endArrow=open;endFill=0;dashed=1;rounded=0;" edge="1" parent="1" source="nd5Npg8IJwhZFM3NRIcZ-42" target="nd5Npg8IJwhZFM3NRIcZ-43">
          <mxGeometry width="160" relative="1" as="geometry">
            <mxPoint x="-357" y="227" as="sourcePoint" />
            <mxPoint x="277" y="-297" as="targetPoint" />
          </mxGeometry>
        </mxCell>
        <mxCell id="9AlRuPnBARWyoGBG4XdZ-21" value="&amp;lt;&amp;lt;include&amp;gt;&amp;gt;" style="html=1;verticalAlign=bottom;labelBackgroundColor=none;endArrow=open;endFill=0;dashed=1;rounded=0;" edge="1" parent="1" source="nd5Npg8IJwhZFM3NRIcZ-40" target="nd5Npg8IJwhZFM3NRIcZ-43">
          <mxGeometry width="160" relative="1" as="geometry">
            <mxPoint x="167" y="-409" as="sourcePoint" />
            <mxPoint x="383" y="-351" as="targetPoint" />
          </mxGeometry>
        </mxCell>
        <mxCell id="9AlRuPnBARWyoGBG4XdZ-22" value="&amp;lt;&amp;lt;include&amp;gt;&amp;gt;" style="html=1;verticalAlign=bottom;labelBackgroundColor=none;endArrow=open;endFill=0;dashed=1;rounded=0;" edge="1" parent="1" source="nd5Npg8IJwhZFM3NRIcZ-41" target="nd5Npg8IJwhZFM3NRIcZ-43">
          <mxGeometry width="160" relative="1" as="geometry">
            <mxPoint x="101" y="-482" as="sourcePoint" />
            <mxPoint x="393" y="-341" as="targetPoint" />
          </mxGeometry>
        </mxCell>
        <mxCell id="9AlRuPnBARWyoGBG4XdZ-23" value="&amp;lt;&amp;lt;include&amp;gt;&amp;gt;" style="html=1;verticalAlign=bottom;labelBackgroundColor=none;endArrow=open;endFill=0;dashed=1;rounded=0;" edge="1" parent="1" source="nd5Npg8IJwhZFM3NRIcZ-39" target="nd5Npg8IJwhZFM3NRIcZ-43">
          <mxGeometry width="160" relative="1" as="geometry">
            <mxPoint x="9" y="-560" as="sourcePoint" />
            <mxPoint x="403" y="-331" as="targetPoint" />
          </mxGeometry>
        </mxCell>
        <mxCell id="9AlRuPnBARWyoGBG4XdZ-26" value="" style="endArrow=open;startArrow=none;endFill=0;startFill=0;endSize=8;html=1;verticalAlign=bottom;labelBackgroundColor=none;strokeWidth=1;rounded=0;" edge="1" parent="1" source="nd5Npg8IJwhZFM3NRIcZ-1" target="nd5Npg8IJwhZFM3NRIcZ-28">
          <mxGeometry width="160" relative="1" as="geometry">
            <mxPoint x="50" y="102" as="sourcePoint" />
            <mxPoint x="-156" y="403" as="targetPoint" />
          </mxGeometry>
        </mxCell>
        <mxCell id="9AlRuPnBARWyoGBG4XdZ-33" value="&amp;lt;&amp;lt;include&amp;gt;&amp;gt;" style="html=1;verticalAlign=bottom;labelBackgroundColor=none;endArrow=open;endFill=0;dashed=1;rounded=0;" edge="1" parent="1" source="nd5Npg8IJwhZFM3NRIcZ-38" target="nd5Npg8IJwhZFM3NRIcZ-36">
          <mxGeometry width="160" relative="1" as="geometry">
            <mxPoint x="130" y="-366" as="sourcePoint" />
            <mxPoint x="380" y="-344" as="targetPoint" />
          </mxGeometry>
        </mxCell>
        <mxCell id="9AlRuPnBARWyoGBG4XdZ-34" value="&amp;lt;&amp;lt;include&amp;gt;&amp;gt;" style="html=1;verticalAlign=bottom;labelBackgroundColor=none;endArrow=open;endFill=0;dashed=1;rounded=0;" edge="1" parent="1" source="nd5Npg8IJwhZFM3NRIcZ-20" target="nd5Npg8IJwhZFM3NRIcZ-24">
          <mxGeometry width="160" relative="1" as="geometry">
            <mxPoint x="-272" y="512" as="sourcePoint" />
            <mxPoint x="-98" y="478" as="targetPoint" />
          </mxGeometry>
        </mxCell>
        <mxCell id="9AlRuPnBARWyoGBG4XdZ-35" value="&amp;lt;&amp;lt;include&amp;gt;&amp;gt;" style="html=1;verticalAlign=bottom;labelBackgroundColor=none;endArrow=open;endFill=0;dashed=1;rounded=0;" edge="1" parent="1" source="nd5Npg8IJwhZFM3NRIcZ-20" target="nd5Npg8IJwhZFM3NRIcZ-32">
          <mxGeometry width="160" relative="1" as="geometry">
            <mxPoint x="450" y="762" as="sourcePoint" />
            <mxPoint x="-610" y="818" as="targetPoint" />
          </mxGeometry>
        </mxCell>
        <mxCell id="9AlRuPnBARWyoGBG4XdZ-36" value="&amp;lt;&amp;lt;include&amp;gt;&amp;gt;" style="html=1;verticalAlign=bottom;labelBackgroundColor=none;endArrow=open;endFill=0;dashed=1;rounded=0;" edge="1" parent="1" source="nd5Npg8IJwhZFM3NRIcZ-18" target="nd5Npg8IJwhZFM3NRIcZ-19">
          <mxGeometry width="160" relative="1" as="geometry">
            <mxPoint x="359" y="380" as="sourcePoint" />
            <mxPoint x="341" y="470" as="targetPoint" />
          </mxGeometry>
        </mxCell>
      </root>
    </mxGraphModel>
  </diagram>
</mxfile>
